<svg width="33" height="23" viewBox="0 0 33 23" fill="none" xmlns="http://www.w3.org/2000/svg">
<path fill-rule="evenodd" clip-rule="evenodd" d="M0 11.5L8.25016 19.6435C12.7841 24.1188 20.2159 24.1188 24.7498 19.6435L29.3362 15.1163L28.4204 14.2122L27.5045 13.3082L25.6726 11.5L22.94 8.80266L21.0862 6.97293C18.5745 4.49361 14.4255 4.49361 11.9138 6.97293L10.991 7.88375L12.8229 9.69178L13.7457 8.78111C15.2461 7.29999 17.7539 7.29999 19.2543 8.78111L19.4343 8.95872L21.108 10.6108L22.009 11.5L23.8407 13.3082L25.6726 15.1163L22.9181 17.8353C19.3951 21.3126 13.6047 21.3126 10.0819 17.8353L5.49549 13.3082L3.66363 11.5L1.83189 9.69178L0 11.5ZM7.32741 7.88375L9.15928 9.69178L10.991 11.5L11.4524 11.9553L13.2842 13.7635L13.7457 14.2189C15.2461 15.7001 17.7539 15.7001 19.2543 14.2189L20.1771 13.3082L22.009 15.1163L21.0862 16.0271C18.5745 18.5064 14.4255 18.5064 11.9138 16.0271L9.62049 13.7635L7.32741 11.5L5.49549 9.69178L4.14009 8.35405L3.66363 7.88375L8.25016 3.35648C12.7841 -1.11883 20.2159 -1.11883 24.7498 3.35648L33 11.5L31.1681 13.3082L29.3362 11.5L27.6387 9.82443L22.9181 5.16469C19.3951 1.68739 13.6047 1.68739 10.0819 5.16469L7.32741 7.88375ZM14.6548 11.5L15.5774 12.4108C16.0669 12.8938 16.9331 12.8938 17.4226 12.4108L18.3452 11.5L17.4226 10.5892C16.9331 10.1062 16.0669 10.1062 15.5774 10.5892L14.6548 11.5Z" fill="white" fill-opacity="0.8"/>
</svg>
